PathFileType	4	(X/Y/Z)	C:/Users/beibeiliu/ov580/test_trc/User1\sequence.24_training_dense_right.trc
DataRate	CameraRate	NumFrames	NumMarkers	Units	OrigDataRate	OrigDataStartFrame	OrigNumFrames
120	120	12	19	mm	120	102	177
Frame#	Time	ThumbCMC			ThumbMCP			ThumbIP			ThumbTip			IndexMCP			IndexPIP			IndexTip			MiddleMCP			MiddlePIP			MiddleTip			RingMCP			RingPIP			RingTip			PinkyMCP			PinkyPIP			PinkyTip			BackHand1			BackHand2			BackHand3	
		X0	Y0	Z0	X1	Y1	Z1	X2	Y2	Z2	X3	Y3	Z3	X4	Y4	Z4	X5	Y5	Z5	X6	Y6	Z6	X7	Y7	Z7	X8	Y8	Z8	X9	Y9	Z9	X10	Y10	Z10	X11	Y11	Z11	X12	Y12	Z12	X13	Y13	Z13	X14	Y14	Z14	X15	Y15	Z15	X16	Y16	Z16	X17	Y17	Z17	X18	Y18	Z18	
101	0.841667	149.463	29.332	49.0088	133.132	26.8297	16.7772	125.717	11.5235	-10.7375	112.261	-9.44942	-19.872	163.883	-8.53043	-26.8671	159.985	-15.8316	-46.4107	157.837	-31.9778	-69.0038	137.405	-27.5598	-26.5773	118.001	-23.1113	-43.4377	88.2708	-18.2534	-61.9965	116.427	-31.8101	-6.56266	90.4576	-12.3424	4.46104	98.5804	1.33757	34.667	110.428	-45.5264	15.0281	93.1566	-21.6397	24.1969	109.284	-6.07903	47.4835	155.753	-39.4683	44.2541	159.183	-30.9111	77.6892	172.381	-7.80227	50.2047	
102	0.85	153.94	22.9077	52.3646	139.611	26.5051	16.9518	131.328	9.4306	-10.4261	116.902	-10.0427	-17.3245	167.391	-16.9023	-21.0662	162.956	-24.7938	-42.156	160.608	-38.662	-64.7632	141.814	-32.4907	-22.7218	119.613	-27.2407	-43.9167	90.6227	-20.3234	-61.656	118.084	-36.1695	-2.89605	94.2014	-11.6748	3.06088	100.492	2.2981	33.6117	106.893	-43.898	14.9949	93.503	-20.7786	24.6075	108.67	-6.70039	48.7739	156.493	-44.48	42.0656	158.577	-36.8024	81.9947	174.22	-14.2346	53.7919	
103	0.858333	160.934	21.7245	53.975	147.014	21.8581	18.4298	138.342	5.44799	-5.7509	122.046	-17.415	-19.0698	169.75	-27.4044	-20.2945	168.122	-32.5162	-43.7639	166.136	-44.6799	-65.4506	142.63	-38.7732	-19.5761	124.984	-28.3552	-43.316	101.73	-19.0473	-61.2769	118.831	-35.6104	-3.64533	97.9604	-12.3092	3.41973	103.65	1.64045	33.5353	105.006	-45.0597	16.3741	96.1475	-19.426	22.6021	112.1	-4.49653	47.6912	154.035	-51.0904	46.7894	158.154	-40.1162	83.3358	178.758	-17.268	56.1019	
104	0.866667	163.005	13.4321	56.7109	154.763	18.2277	15.8664	144.263	-0.722208	-5.54978	127.331	-17.8927	-16.2602	177.296	-30.8244	-17.1167	173.763	-39.2625	-41.592	167.304	-54.2428	-60.944	148.1	-40.8275	-22.2104	128.712	-34.9931	-41.4459	105.84	-24.7595	-60.7269	119.878	-39.0243	-2.29193	102.941	-8.84341	2.7467	106.889	0.778249	35.1276	107.874	-47.872	16.7771	97.9162	-19.1454	23.1683	119.666	-5.47979	48.5715	153.915	-54.1593	51.7667	154.337	-43.9897	86.6099	175.523	-25.7827	59.9854	
105	0.875	168.663	8.80411	55.9121	159.325	13.3943	16.6039	148.873	-4.45445	-8.71071	130.659	-24.0484	-17.4876	179.613	-38.8316	-16.9072	176.399	-45.3349	-37.8992	172.218	-58.8992	-57.5025	149.719	-46.4671	-19.5305	134.538	-39.4086	-39.2272	112.48	-26.8754	-62.1426	123.172	-38.6857	-3.85308	107.907	-9.63909	1.8956	110.831	2.81829	29.7363	109.193	-48.5639	16.0515	103.834	-18.0272	22.5337	120.178	-7.354	45.8037	152.918	-58.1644	49.9733	155.764	-46.8492	85.9636	179	-29.5207	58.1857	
106	0.883333	173.536	7.60513	56.4308	163.889	9.67867	17.5988	152.948	-9.77432	-7.05686	134.975	-24.3637	-16.7929	180.029	-46.8461	-12.9631	177.624	-54.0504	-32.2761	175.431	-69.1274	-55.591	150.121	-52.1284	-18.0177	136.52	-43.6799	-41.4976	116.167	-30.1874	-65.3921	126.22	-42.6701	-3.10299	111.073	-14.4678	0.512331	115.122	1.26553	28.0047	109.773	-52.4275	17.8082	102.796	-20.2588	23.2874	117.513	-8.93333	46.102	150.567	-65.3767	52.9078	151.237	-52.7245	89.3599	179.886	-36.6719	60.4014	
107	0.891667	174.659	3.00337	58.6163	164.732	1.04053	20.9891	155.407	-16.1441	-4.54021	137.719	-30.2222	-18.5794	185.848	-52.2585	-8.89719	185.668	-60.3229	-32.494	180.517	-76.6117	-55.0625	154.864	-55.98	-17.8845	142.748	-46.6705	-39.6369	122.338	-37.436	-60.2931	129.236	-46.4104	-0.852749	110.869	-15.9268	3.34333	118.225	-1.7118	29.3436	110.022	-51.9939	16.6273	105.596	-24.1746	18.7313	124.304	-10.8329	45.0423	149.305	-67.2287	55.2394	152.947	-54.9978	87.9365	180.005	-40.2072	65.3434	
108	0.9	174.026	-2.44154	61.8325	169.106	-2.46525	19.9679	159.283	-16.3954	-5.49092	140.818	-34.0938	-16.2074	186.928	-57.2132	-3.66857	186.367	-67.9512	-29.326	184.031	-81.5209	-51.0304	159.775	-60.116	-10.0497	143.854	-53.428	-36.034	129.63	-38.8714	-60.6352	129.294	-47.7132	-0.819658	113.712	-18.5446	2.83174	118.532	-3.92872	33.7677	111.444	-51.481	15.8328	109.439	-25.7763	18.6821	123.991	-12.2061	47.3378	147.329	-68.4292	58.6398	152.644	-55.6591	90.6973	180.566	-44.9182	68.9804	
109	0.908333	177.958	-4.2172	63.5474	172.187	-4.51873	25.648	162.711	-22.7023	-2.30407	144.762	-38.25	-14.0374	190.763	-59.6384	1.33471	189.171	-69.3842	-21.9208	186.775	-87.1735	-46.3576	157.437	-64.2893	-11.1791	151.225	-53.5723	-35.1938	133.144	-43.7989	-58.9165	129.503	-51.9024	2.01981	117.174	-22.4719	1.56279	121.191	-5.71505	31.2744	115.832	-54.299	16.2487	111.397	-24.6765	21.1652	127.546	-16.6341	47.351	148.265	-69.3416	60.4964	147.9	-58.9153	94.2318	177.384	-45.5543	72.7629	
110	0.916667	180.39	-8.30312	63.6216	174.615	-7.53056	25.5501	168.131	-21.6706	-0.395767	149.217	-40.9332	-16.5071	188.769	-64.9958	5.27958	189.954	-75.5009	-20.9153	190.791	-88.448	-41.6941	164.994	-66.5473	-6.23778	151.459	-56.8328	-36.2568	137.897	-45.0968	-60.5111	134.163	-55.5023	4.23473	124.435	-19.5674	2.1173	125.847	-7.24698	28.7569	116.129	-56.2054	16.9483	116.215	-27.4524	20.1694	127.026	-16.7578	50.0852	146.819	-70.9715	63.4164	145.957	-56.3193	97.0849	179.484	-49.9558	74.1616	
111	0.925	177.478	-11.0626	66.4532	175.269	-9.16012	29.2237	170.886	-22.8587	2.8476	152.375	-40.7435	-12.9998	191.535	-68.0947	6.85309	193.224	-78.4903	-17.2561	193.281	-91.4366	-39.1143	164.198	-70.0772	-4.38598	158.421	-60.0648	-31.3709	142.682	-45.4076	-61.3549	134.728	-56.6786	4.16575	127.349	-23.4374	1.80544	127.887	-8.18825	32.5704	119.617	-58.4391	19.5957	116.404	-28.4601	20.7076	127.175	-18.3867	48.0276	151.213	-71.9814	61.6753	143.323	-60.2039	97.0209	178.858	-49.397	80.0256	
112	0.933333	178.945	-11.3996	68.8248	176.455	-13.8775	31.1856	171.462	-26.0052	5.83143	153.345	-43.2899	-11.9598	194.965	-67.2635	9.63918	194.155	-80.7908	-14.6059	193.004	-92.4844	-32.8508	168.082	-68.8876	-6.09493	159.104	-63.32	-29.0621	149.907	-47.6396	-58.588	139.686	-55.9964	3.08973	128.538	-22.8517	2.18984	128.319	-9.35266	34.2364	118.301	-58.6593	19.2952	114.532	-27.1643	20.8489	127.931	-20.3441	49.7937	148.625	-75.3945	63.9204	143.876	-60.3919	97.9074	177.198	-50.1273	79.0227	
